<svg xmlns="http://www.w3.org/2000/svg" viewBox="0 0 143.73 143.73"><defs><style>.cls-1,.cls-10{fill:#fff;}.cls-1{stroke:#bc584d;stroke-width:2px;}.cls-1,.cls-9{stroke-miterlimit:10;}.cls-1,.cls-2,.cls-8{opacity:0.7;}.cls-2,.cls-7{fill:#372d16;}.cls-3{fill:#8c491c;}.cls-4{fill:#fcdabf;}.cls-5{fill:#dd7770;}.cls-6{fill:#ae6c3c;}.cls-12,.cls-7{opacity:0.8;}.cls-8{fill:#672e11;}.cls-9{fill:none;stroke:#1d1d1b;stroke-width:0.5px;}.cls-11{fill:#c97235;}.cls-12{fill:#e09867;}.cls-13{fill:#bb584d;}</style></defs><title>Varlık 1</title><g id="katman_2" data-name="katman 2"><g id="katman_1-2" data-name="katman 1"><circle class="cls-1" cx="71.87" cy="71.87" r="70.87"/><circle class="cls-2" cx="71.87" cy="71.87" r="49.61"/><circle class="cls-3" cx="51.07" cy="68.8" r="6.28"/><circle class="cls-3" cx="52.25" cy="73.52" r="4.67"/><circle class="cls-3" cx="50.46" cy="77.94" r="3.51"/><circle class="cls-3" cx="51.91" cy="80.29" r="3.51"/><circle class="cls-3" cx="89.95" cy="80.62" r="3.51"/><circle class="cls-3" cx="50.49" cy="73.6" r="4.67"/><circle class="cls-3" cx="92.38" cy="68.5" r="6.28"/><circle class="cls-3" cx="92.07" cy="77.11" r="3.51"/><circle class="cls-3" cx="92.09" cy="73.3" r="4.67"/><circle class="cls-4" cx="89.23" cy="80.03" r="4.71"/><circle class="cls-5" cx="89.59" cy="80.15" r="3.31"/><circle class="cls-4" cx="52.66" cy="79.78" r="4.71"/><circle class="cls-5" cx="52.35" cy="79.71" r="3.23"/><rect class="cls-4" x="50.08" y="62.51" width="41.75" height="24.25"/><path class="cls-4" d="M68.26,104.16,51.2,89a3.38,3.38,0,0,1,0-5l17.1-15.93a4,4,0,0,1,5.37,0L90.77,84a3.38,3.38,0,0,1,0,5L73.5,104.33a4.61,4.61,0,0,1-2.56.73A4.66,4.66,0,0,1,68.26,104.16Z"/><circle class="cls-6" cx="49.32" cy="69.52" r="3.68"/><circle class="cls-6" cx="49.01" cy="64.22" r="4.2"/><circle class="cls-6" cx="52.86" cy="65.54" r="4.2"/><circle class="cls-6" cx="59.43" cy="63.1" r="4.2"/><circle class="cls-6" cx="69.53" cy="60.89" r="4.94"/><circle class="cls-6" cx="75.57" cy="61.63" r="4.2"/><circle class="cls-6" cx="81.31" cy="62.22" r="4.2"/><circle class="cls-6" cx="88.78" cy="64.22" r="4.2"/><circle class="cls-6" cx="94.74" cy="67.3" r="4.2"/><circle class="cls-6" cx="94.15" cy="64.14" r="4.2"/><circle class="cls-6" cx="92.06" cy="58.61" r="5.15"/><circle class="cls-6" cx="85.68" cy="55.7" r="6.38"/><circle class="cls-6" cx="76.95" cy="58.9" r="5.15"/><circle class="cls-6" cx="69.31" cy="54.12" r="5.15"/><circle class="cls-6" cx="62.87" cy="57.56" r="7.72"/><circle class="cls-6" cx="55.56" cy="56.57" r="6.66"/><circle class="cls-6" cx="51.07" cy="58.9" r="5.15"/><circle class="cls-6" cx="53.38" cy="52.2" r="5.53"/><circle class="cls-6" cx="60.63" cy="46.73" r="5.98"/><circle class="cls-6" cx="68.64" cy="45.57" r="6.63"/><circle class="cls-6" cx="77.25" cy="45.58" r="6.91"/><circle class="cls-6" cx="77.82" cy="51.17" r="5.15"/><circle class="cls-6" cx="83.99" cy="47.78" r="5.52"/><circle class="cls-6" cx="89.62" cy="51.76" r="5.15"/><circle class="cls-7" cx="62.36" cy="73.84" r="4.05"/><circle class="cls-8" cx="62.36" cy="73.84" r="2.26"/><circle class="cls-7" cx="80.37" cy="73.99" r="4.05"/><circle class="cls-8" cx="80.37" cy="73.99" r="2.26"/><circle class="cls-9" cx="62.22" cy="73.99" r="6.09"/><path class="cls-10" d="M62.56,68.31l-.33,0-5.55,4.06a4.76,4.76,0,0,0-.2,1.36,5,5,0,0,0,.33,1.77l8.82-6.46A6.63,6.63,0,0,0,62.56,68.31Z"/><circle class="cls-9" cx="80.37" cy="74.4" r="6.09"/><path class="cls-10" d="M80.71,68.72l-.33,0L74.82,72.8a5.13,5.13,0,0,0-.19,1.36A5,5,0,0,0,75,75.93l8.82-6.46A6.63,6.63,0,0,0,80.71,68.72Z"/><path class="cls-9" d="M68.11,72.44a6,6,0,0,1,6.46.11"/><path class="cls-11" d="M49.2,51.94c.79-2.7,3.07-4.41,5.09-3.82a3.33,3.33,0,0,1,.87.42,2.94,2.94,0,0,0-1.46-1c-1.91-.55-4.05,1.05-4.78,3.58a5.52,5.52,0,0,0,.1,3.61A6.24,6.24,0,0,1,49.2,51.94Z"/><path class="cls-11" d="M53.63,57.86c1.3-2.79,4.31-4.15,6.72-3a4.23,4.23,0,0,1,1,.66,4.1,4.1,0,0,0-1.66-1.45c-2.26-1-5.09.22-6.31,2.84a5.62,5.62,0,0,0-.33,4A6.19,6.19,0,0,1,53.63,57.86Z"/><path class="cls-11" d="M50.83,66.92A4.08,4.08,0,0,1,56,64.36a3.4,3.4,0,0,1,.8.48,3.14,3.14,0,0,0-1.34-1.07,3.82,3.82,0,0,0-4.82,2.41,4.37,4.37,0,0,0-.14,3.13A4.93,4.93,0,0,1,50.83,66.92Z"/><path class="cls-11" d="M64.61,47.66c2.59-2.26,6.27-2.29,8.22-.06a5.07,5.07,0,0,1,.73,1.13,4.4,4.4,0,0,0-1-2.22c-1.83-2.1-5.28-2.07-7.71.05a6.29,6.29,0,0,0-2.15,3.95A7,7,0,0,1,64.61,47.66Z"/><path class="cls-11" d="M81.91,49.05a5,5,0,0,1,4.72,5.36,4.61,4.61,0,0,1-.23,1.24,4.77,4.77,0,0,0-3.76-7.23,4.65,4.65,0,0,0-3.48,1.28A4.86,4.86,0,0,1,81.91,49.05Z"/><path class="cls-11" d="M71,55.81c2.32-1.44,5.12-1.14,6.25.67a3.22,3.22,0,0,1,.37.9,3.12,3.12,0,0,0-.44-1.74c-1.06-1.7-3.69-2-5.87-.62a5.31,5.31,0,0,0-2.25,2.72A6,6,0,0,1,71,55.81Z"/><path class="cls-11" d="M88.93,58.51a3.61,3.61,0,0,1,2.66,4.36,3.4,3.4,0,0,1-.32.84A3.34,3.34,0,0,0,92,62.25a3.39,3.39,0,0,0-2.5-4.09,3.31,3.31,0,0,0-2.6.47A3.51,3.51,0,0,1,88.93,58.51Z"/><path class="cls-11" d="M56.57,45a5.09,5.09,0,0,1,7-1.83,4.87,4.87,0,0,1,1,.78,4.72,4.72,0,0,0-1.65-1.61,4.76,4.76,0,0,0-7,5.43A5,5,0,0,1,56.57,45Z"/><path class="cls-11" d="M75.23,40.78a5.12,5.12,0,0,1,6.93,2.07,5.74,5.74,0,0,1,.52,1.2,5.17,5.17,0,0,0-.7-2.27,4.8,4.8,0,0,0-6.5-1.94,4.48,4.48,0,0,0-2.13,3A4.73,4.73,0,0,1,75.23,40.78Z"/><path class="cls-11" d="M91,48.05A4.58,4.58,0,0,1,92.25,55a4.32,4.32,0,0,0,1.29-1.59,4.15,4.15,0,0,0-1.74-5.59,3.86,3.86,0,0,0-3.17-.08A4.12,4.12,0,0,1,91,48.05Z"/><path class="cls-11" d="M94.71,55.77a3.67,3.67,0,0,1,.21,5.16,3,3,0,0,1-.69.49,2.83,2.83,0,0,0,1.37-.71,3.46,3.46,0,0,0-.19-4.85,3.93,3.93,0,0,0-2.53-1.25A4.35,4.35,0,0,1,94.71,55.77Z"/><path class="cls-12" d="M88.79,86.22c-3.09-.07-31.29-1.39-37.16.07-.5.13-1.23.37-1.38.9s.29,1,.72,1.59a5.42,5.42,0,0,0,1.56,1.49c.24.15,2.19,1.87,6.08,5.31,1,.88,7,6.19,9,8a5.33,5.33,0,0,0,1.37.93,4.76,4.76,0,0,0,2,.51,4.62,4.62,0,0,0,2.73-.87L88.79,90.76a14.37,14.37,0,0,0,1.69-1.54c.59-.69,1.31-1.52,1.11-2.12C91.3,86.25,89.29,86.23,88.79,86.22Z"/><rect class="cls-13" x="63.27" y="90.97" width="16.13" height="1.96" rx="0.98" ry="0.98"/></g></g></svg>